<?xml version="1.0" encoding="utf-8"?>
<!-- Generator: Adobe Illustrator 23.0.0, SVG Export Plug-In . SVG Version: 6.00 Build 0)  -->
<svg version="1.1" id="Layer_1" xmlns="http://www.w3.org/2000/svg" xmlns:xlink="http://www.w3.org/1999/xlink" x="0px" y="0px"
	 viewBox="0 0 289.3 61.1" style="enable-background:new 0 0 289.3 61.1;" xml:space="preserve">
<style type="text/css">
	.st0{fill:#FFFFFF;}
	.st1{fill:#DCDDDE;}
</style>
<g>
	<g>
		<path class="st0" d="M47.6,9.7h6.2v50.1h-6.2V9.7z"/>
		<path class="st0" d="M95.2,42.4c0,12.6-8.7,18.1-17,18.1c-9.2,0-16.4-6.8-16.4-17.6c0-11.4,7.5-18.1,16.9-18.1
			C88.5,24.8,95.2,32,95.2,42.4z M68.1,42.7c0,7.5,4.3,13.1,10.4,13.1c5.9,0,10.4-5.6,10.4-13.3c0-5.8-2.9-13.1-10.2-13.1
			C71.3,29.5,68.1,36.3,68.1,42.7z"/>
		<path class="st0" d="M127.3,58.5c-1.6,0.8-5.2,2-9.8,2c-10.3,0-17-7-17-17.4c0-10.5,7.2-18.1,18.3-18.1c3.7,0,6.9,0.9,8.6,1.8
			l-1.4,4.8c-1.5-0.8-3.8-1.6-7.2-1.6c-7.8,0-12.1,5.8-12.1,12.9c0,7.9,5.1,12.8,11.8,12.8c3.5,0,5.9-0.9,7.6-1.7L127.3,58.5z"/>
		<path class="st0" d="M140.7,41.3h0.1c0.8-1.2,2-2.7,3-3.9l10-11.8h7.5l-13.2,14l15,20.1h-7.5l-11.8-16.4l-3.2,3.5v12.8h-6.1V9.7
			h6.1V41.3z"/>
		<path class="st0" d="M171.1,43.8c0.1,8.4,5.5,11.8,11.7,11.8c4.4,0,7.1-0.8,9.4-1.8l1.1,4.4c-2.2,1-5.9,2.1-11.4,2.1
			c-10.5,0-16.8-6.9-16.8-17.2s6.1-18.4,16-18.4c11.1,0,14.1,9.8,14.1,16.1c0,1.3-0.1,2.3-0.2,2.9H171.1z M189.3,39.4
			c0.1-3.9-1.6-10.1-8.6-10.1c-6.3,0-9,5.8-9.5,10.1H189.3z"/>
		<path class="st0" d="M232.4,9.7v41.2c0,3,0.1,6.5,0.3,8.8h-5.6l-0.3-5.9h-0.1c-1.9,3.8-6.1,6.7-11.6,6.7c-8.2,0-14.6-7-14.6-17.3
			c-0.1-11.4,7-18.3,15.3-18.3c5.2,0,8.7,2.5,10.3,5.2h0.1V9.7H232.4z M226.2,39.5c0-0.8-0.1-1.8-0.3-2.6c-0.9-3.9-4.3-7.2-9-7.2
			c-6.4,0-10.2,5.6-10.2,13.2c0,6.9,3.4,12.6,10.1,12.6c4.2,0,8-2.7,9.1-7.4c0.2-0.8,0.3-1.7,0.3-2.7V39.5z"/>
		<path class="st0" d="M249,12.2v47.5h-6.1V12.2H249z"/>
		<path class="st0" d="M260.3,34.9c0-3.5-0.1-6.4-0.3-9.2h5.5l0.4,5.6h0.1c1.7-3.2,5.6-6.4,11.3-6.4c4.7,0,12.1,2.8,12.1,14.5v20.4
			h-6.2V40.1c0-5.5-2-10.1-7.9-10.1c-4.1,0-7.3,2.9-8.3,6.3c-0.3,0.8-0.4,1.8-0.4,2.9v20.5h-6.2V34.9z"/>
	</g>
	<g>
		<g>
			<path class="st0" d="M37.8,18 M16.1,18c6.8-4.4,15.2-4.1,21.6,0l1.5-4.9c-7.8-4.4-17.8-4.5-25.9,0.7l0,0
				c-11.6,7.5-15,22.9-7.5,34.5c7,10.9,20.9,14.5,32.2,8.9c0.8-0.4,1.6-0.8,2.3-1.3l-2.7-4.2c-0.3,0.2-0.5,0.3-0.8,0.5
				c-9.2,5.3-21.1,2.5-26.8-6.5C4.2,36.3,6.9,23.9,16.1,18 M39.3,13"/>
		</g>
		<path class="st1" d="M25,36.3c0.7,1.1,2.3,1.5,3.4,0.7c1.1-0.7,1.5-2.3,0.7-3.4L18,20.9L25,36.3z"/>
		<path class="st1" d="M17.7,6.3L4.9,14.5c-1.1,0.7-2.6,0.4-3.3-0.7L0.4,12C-0.3,10.8,0,9.4,1.1,8.6l12.8-8.2
			C15-0.3,16.5,0,17.3,1.2L18.4,3C19.1,4.1,18.8,5.6,17.7,6.3z"/>
		<path class="st1" d="M35.5,9.5L33.6,9c-1.1-0.2-1.8-1.3-1.5-2.4v0c0.2-1.1,1.3-1.8,2.4-1.5l1.9,0.4c1.1,0.2,1.8,1.3,1.5,2.4v0
			C37.6,9,36.6,9.7,35.5,9.5z"/>
	</g>
</g>
</svg>
