<?xml version="1.0" encoding="utf-8"?>
<!-- Generator: Adobe Illustrator 23.0.0, SVG Export Plug-In . SVG Version: 6.00 Build 0)  -->
<svg version="1.1" id="Layer_1" xmlns="http://www.w3.org/2000/svg" xmlns:xlink="http://www.w3.org/1999/xlink" x="0px" y="0px"
	 viewBox="0 0 100 100" style="enable-background:new 0 0 100 100;" xml:space="preserve">
<style type="text/css">
	.st0{fill:#E57A78;}
	.st1{fill:#E39C9D;}
</style>
<g>
	<g>
		<g>
			<path class="st0" d="M74.4,33.3 M44.3,33.3c9.5-6.1,21.2-5.7,30.1,0l2.1-6.9c-10.9-6.2-24.8-6.3-36,1l0,0
				C24.3,37.9,19.6,59.4,30,75.6c9.7,15.1,29.1,20.2,44.9,12.4c1.1-0.6,2.2-1.2,3.3-1.9l-3.8-5.9c-0.4,0.2-0.7,0.5-1.1,0.7
				c-12.8,7.4-29.3,3.5-37.4-9.1C27.6,58.9,31.4,41.6,44.3,33.3 M76.5,26.5"/>
		</g>
		<path class="st1" d="M56.6,58.9c1,1.6,3.1,2.1,4.7,1s2.1-3.1,1-4.7L46.9,37.4L56.6,58.9z"/>
		<path class="st1" d="M47.2,16.6L27.8,29c-1.1,0.7-2.6,0.4-3.3-0.7l-2.6-4.1c-0.7-1.1-0.4-2.6,0.7-3.3L42,8.4
			c1.1-0.7,2.6-0.4,3.3,0.7l2.6,4.1C48.7,14.3,48.3,15.8,47.2,16.6z"/>
		<path class="st1" d="M72,21.7l-4.2-0.9c-1.1-0.2-1.8-1.3-1.5-2.4l0.3-1.5c0.2-1.1,1.3-1.8,2.4-1.5l4.2,0.9
			c1.1,0.2,1.8,1.3,1.5,2.4l-0.3,1.5C74.1,21.2,73.1,21.9,72,21.7z"/>
	</g>
</g>
</svg>
