<?xml version="1.0" encoding="utf-8"?>
<!-- Generator: Adobe Illustrator 22.1.0, SVG Export Plug-In . SVG Version: 6.00 Build 0)  -->
<svg version="1.1" id="Layer_1" xmlns="http://www.w3.org/2000/svg" xmlns:xlink="http://www.w3.org/1999/xlink" x="0px" y="0px"
	 viewBox="0 0 448 512" style="enable-background:new 0 0 448 512;" xml:space="preserve">
<style type="text/css">
	.st0{fill:#FFFFFF;}
</style>
<path class="st0" d="M400,192h-32v-46.6C368,65.8,304,0.2,224.4,0S80,64.5,80,144v48H48c-26.5,0-48,21.5-48,48v224
	c0,26.5,21.5,48,48,48h352c26.5,0,48-21.5,48-48V240C448,213.5,426.5,192,400,192z M128,144c0-52.9,43.1-96,96-96s96,43.1,96,96v48
	H128V144z M400,464H48V240h352V464z"/>
</svg>
