<svg id="Layer_1" data-name="Layer 1" xmlns="http://www.w3.org/2000/svg" viewBox="0 0 412 73.53"><defs><style>.cls-1{fill:#fff;}</style></defs><title>logo</title><path class="cls-1" d="M200.7,161.71H210c8.37,0,13.43,2.7,13.43,10.34,0,7.25-5,10.79-13.21,10.79h-7v15.89H200.7Zm8.94,18.94c7.52,0,11.18-2.53,11.18-8.6,0-6.24-3.77-8.15-11.41-8.15h-6.12v16.75Z" transform="translate(-199 -160.21)"/><path class="cls-1" d="M231.55,161.71h10.62c7.36,0,12.13,2.7,12.13,9.78,0,5.9-3.65,9.32-9.49,10L255,198.73h-3l-10.05-17h-7.87v17h-2.58Zm9.94,17.87c6.52,0,10.17-2.64,10.17-8.09s-3.65-7.59-10.17-7.59h-7.36v15.68Z" transform="translate(-199 -160.21)"/><path class="cls-1" d="M259.75,180.08c0-11.68,6.35-19,15.23-19s15.28,7.36,15.28,19-6.35,19.33-15.28,19.33S259.75,191.83,259.75,180.08Zm27.75,0c0-10.22-5-16.68-12.52-16.68s-12.53,6.46-12.53,16.68,5,17,12.53,17S287.5,190.36,287.5,180.08Z" transform="translate(-199 -160.21)"/><path class="cls-1" d="M293.85,194l2-1.29c1.8,3.14,4,4.38,7.13,4.38,4.5,0,6.63-2.64,6.63-8.65V161.71h2.59v27c0,5.95-2.47,10.73-9.22,10.73A9.84,9.84,0,0,1,293.85,194Z" transform="translate(-199 -160.21)"/><path class="cls-1" d="M323,161.71h20.28V164H325.54v14h14.83v2.25H325.54v16.29H343.8v2.24H323Z" transform="translate(-199 -160.21)"/><path class="cls-1" d="M349.53,180.14c0-11.74,6.4-19.1,15.78-19.1a12.74,12.74,0,0,1,9.67,4.44l-1.52,1.74a10.51,10.51,0,0,0-8.09-3.82c-8.14,0-13.14,6.46-13.14,16.74s4.94,16.91,12.92,16.91c3.82,0,6.68-1.57,9.38-4.55l1.52,1.63c-2.87,3.26-6.24,5.28-11,5.28C355.88,199.41,349.53,191.94,349.53,180.14Z" transform="translate(-199 -160.21)"/><path class="cls-1" d="M390.37,164H378.58v-2.25h26.17V164H393v34.77h-2.59Z" transform="translate(-199 -160.21)"/><path class="cls-1" d="M199,208.54h2.44l5.19,14.53c.63,1.8,1.31,3.65,2,5.49h.15c.64-1.84,1.24-3.69,1.88-5.49l5.14-14.53h2.48v24.75h-1.69V217c0-2,.11-4.62.23-6.68h-.15l-1.92,5.52-5.33,14.72h-1.51l-5.37-14.72-2-5.52h-.15c.08,2.06.23,4.66.23,6.68v16.27H199Z" transform="translate(-199 -160.21)"/><path class="cls-1" d="M240.67,208.54h1.73l8.72,24.75h-1.81l-2.89-8.49h-9.8l-2.93,8.49H232Zm-3.53,14.8h8.79l-1.58-4.63c-1-2.92-1.87-5.52-2.74-8.56h-.15c-.86,3-1.72,5.64-2.74,8.56Z" transform="translate(-199 -160.21)"/><path class="cls-1" d="M264.84,208.54h1.8L277.08,226l2.78,4.92H280c-.07-2.4-.22-4.81-.22-7.21V208.54h1.65v24.75h-1.8L269.2,215.82l-2.78-4.92h-.15c.07,2.37.22,4.62.22,7v15.36h-1.65Z" transform="translate(-199 -160.21)"/><path class="cls-1" d="M303.88,208.54h1.73l8.71,24.75h-1.8l-2.89-8.49h-9.81l-2.93,8.49h-1.72Zm-3.53,14.8h8.79l-1.58-4.63c-1-2.92-1.88-5.52-2.74-8.56h-.15c-.86,3-1.73,5.64-2.74,8.56Z" transform="translate(-199 -160.21)"/><path class="cls-1" d="M326.09,220.86c0-7.85,4.4-12.77,10.93-12.77a8.93,8.93,0,0,1,6.76,3l-1,1.17a7.36,7.36,0,0,0-5.71-2.56c-5.67,0-9.16,4.32-9.16,11.2s3.3,11.3,8.94,11.3a8,8,0,0,0,5.55-1.88v-7.7h-5.93v-1.46h7.59v9.8a9.9,9.9,0,0,1-7.33,2.82C330.34,233.74,326.09,228.74,326.09,220.86Z" transform="translate(-199 -160.21)"/><path class="cls-1" d="M360.18,208.54h13.56V210H361.9v9.35h9.92v1.5H361.9v10.9h12.21v1.5H360.18Z" transform="translate(-199 -160.21)"/><path class="cls-1" d="M389.3,208.54h7.1c4.92,0,8.11,1.8,8.11,6.53,0,4-2.44,6.24-6.35,6.73L405,233.29h-2l-6.72-11.38H391v11.38H389.3ZM396,220.48c4.36,0,6.8-1.77,6.8-5.41S400.31,210,396,210H391v10.48Z" transform="translate(-199 -160.21)"/><path class="cls-1" d="M438.38,160.21h19.95l23,73.48H463.74l-4.51-17.47H436.8l-4.51,17.47h-16.9Zm1.8,43h15.67l-1.69-6.76c-2-7.32-4.06-16-6-23.67h-.45c-1.81,7.78-3.73,16.35-5.75,23.67Z" transform="translate(-199 -160.21)"/><path class="cls-1" d="M489.36,160.21H514.6c16.12,0,29.19,5.86,29.19,23.67,0,17.24-13.18,24.9-28.74,24.9h-9.12v24.91H489.36ZM514,195.6c9.13,0,13.52-4.06,13.52-11.72s-5-10.48-14-10.48h-7.66v22.2Z" transform="translate(-199 -160.21)"/><path class="cls-1" d="M556.57,160.21h25.24c16.12,0,29.19,5.86,29.19,23.67,0,17.24-13.18,24.9-28.74,24.9h-9.13v24.91H556.57Zm24.68,35.39c9.13,0,13.52-4.06,13.52-11.72s-5-10.48-14-10.48h-7.67v22.2Z" transform="translate(-199 -160.21)"/></svg>